<?xml version="1.0" encoding="iso-8859-1"?>
<!-- Generator: Adobe Illustrator 24.3.0, SVG Export Plug-In . SVG Version: 6.00 Build 0)  -->
<svg version="1.1" id="_x3C_&#xB808;&#xC774;&#xC5B4;_x3E_"
	 xmlns="http://www.w3.org/2000/svg" xmlns:xlink="http://www.w3.org/1999/xlink" x="0px" y="0px" viewBox="0 0 123 28"
	 style="enable-background:new 0 0 123 28;" xml:space="preserve">
<g>
	<path style="fill:#262626;" d="M18.869,17.648c0.695-1.204,1.335-2.42,1.917-3.648c0.208-0.353,0.438-0.717,0.687-1.091
		c0.249-0.374,0.487-0.737,0.717-1.091c0.664-1.163,1.387-2.27,2.167-3.32c0.78-1.05,1.719-1.919,2.823-2.605
		c0.083-0.063,0.192-0.135,0.327-0.218c0.135-0.083,0.249-0.172,0.343-0.265s0.151-0.192,0.172-0.297
		c0.02-0.103-0.042-0.208-0.188-0.311c-0.125-0.083-0.275-0.125-0.451-0.125c-0.176,0-0.359,0.016-0.545,0.046
		c-0.188,0.032-0.37,0.079-0.547,0.141c-0.176,0.063-0.327,0.105-0.452,0.125c-0.854,0.291-1.644,0.665-2.371,1.123
		c-0.727,0.458-1.414,0.988-2.058,1.591c-1.06,0.998-1.991,2.09-2.791,3.274c-0.8,1.185-1.559,2.407-2.276,3.664
		c-0.717,1.258-1.44,2.515-2.169,3.773c-0.727,1.258-1.537,2.448-2.433,3.571c-0.436,0.561-0.919,1.101-1.45,1.622
		c-0.529,0.519-1.101,0.977-1.715,1.371c-0.612,0.396-1.268,0.681-1.965,0.858c-0.695,0.178-1.428,0.204-2.198,0.079
		c-0.291-0.042-0.602-0.121-0.935-0.234c-0.333-0.115-0.56-0.317-0.685-0.608c-0.125-0.291-0.083-0.531,0.125-0.719
		c0.208-0.186,0.374-0.394,0.499-0.622c0.103-0.208,0.167-0.438,0.186-0.687c0.02-0.249-0.006-0.487-0.077-0.717
		c-0.073-0.228-0.188-0.432-0.343-0.608c-0.156-0.176-0.358-0.307-0.608-0.39c-0.293-0.083-0.572-0.087-0.844-0.016
		c-0.269,0.073-0.513,0.198-0.733,0.374c-0.218,0.178-0.41,0.39-0.576,0.64c-0.166,0.249-0.279,0.509-0.343,0.78
		c-0.145,0.602-0.093,1.18,0.157,1.729c0.249,0.553,0.634,0.994,1.153,1.327c0.624,0.436,1.305,0.717,2.044,0.842
		c0.737,0.125,1.491,0.155,2.26,0.093c0.769-0.063,1.533-0.198,2.292-0.406c0.759-0.208,1.45-0.436,2.074-0.685
		c1.331-0.499,2.525-1.175,3.587-2.026c1.06-0.854,2.02-1.82,2.884-2.902C17.394,19.999,18.172,18.854,18.869,17.648z"/>
	<path style="fill:#262626;" d="M29.05,12.908c0.582-0.291,1.119-0.644,1.606-1.06c0.489-0.416,0.905-0.884,1.248-1.402
		c0.343-0.521,0.598-1.088,0.764-1.702c0.167-0.612,0.208-1.252,0.125-1.917c-0.125-1.309-0.608-2.407-1.45-3.29
		c-0.842-0.883-1.846-1.553-3.011-2.01c-1.289-0.499-2.631-0.796-4.023-0.889s-2.781-0.02-4.163,0.218
		c-1.382,0.24-2.739,0.614-4.068,1.123c-1.331,0.509-2.569,1.117-3.712,1.824c-1.165,0.707-2.256,1.543-3.274,2.51
		C8.074,7.279,7.262,8.386,6.66,9.634c-0.23,0.499-0.416,1.046-0.561,1.638c-0.147,0.592-0.22,1.185-0.22,1.777
		c0,0.592,0.083,1.175,0.25,1.747c0.166,0.572,0.448,1.076,0.842,1.511c0.499,0.543,1.05,0.889,1.654,1.046
		c0.602,0.157,1.22,0.186,1.856,0.093c0.634-0.093,1.252-0.291,1.856-0.592c0.602-0.301,1.153-0.628,1.652-0.982
		c0.083-0.061,0.238-0.182,0.467-0.359c0.228-0.176,0.452-0.368,0.672-0.576c0.218-0.208,0.394-0.422,0.529-0.64
		c0.135-0.218,0.15-0.41,0.048-0.576c-0.083-0.125-0.188-0.172-0.313-0.141c-0.125,0.032-0.254,0.089-0.388,0.17
		c-0.137,0.083-0.256,0.178-0.359,0.281c-0.105,0.105-0.188,0.176-0.249,0.218c-0.23,0.208-0.448,0.402-0.656,0.578
		c-0.208,0.176-0.458,0.317-0.749,0.42c-0.291,0.125-0.598,0.218-0.919,0.281c-0.323,0.061-0.646,0.083-0.966,0.061
		c-0.323-0.02-0.636-0.077-0.937-0.17c-0.301-0.093-0.567-0.256-0.794-0.483c-0.355-0.355-0.566-0.769-0.64-1.248
		c-0.073-0.477-0.089-0.957-0.047-1.434c0.166-1.248,0.588-2.423,1.264-3.524c0.676-1.103,1.482-2.06,2.417-2.87
		c1.143-0.998,2.407-1.834,3.789-2.51c1.383-0.675,2.823-1.149,4.32-1.42c0.602-0.103,1.242-0.18,1.917-0.234
		c0.675-0.052,1.345-0.046,2.012,0.016c0.663,0.063,1.313,0.192,1.949,0.39c0.634,0.198,1.22,0.493,1.761,0.889
		c0.582,0.436,1.008,0.941,1.28,1.511c0.269,0.572,0.404,1.175,0.404,1.808c0,0.636-0.109,1.27-0.327,1.904
		c-0.218,0.634-0.515,1.222-0.889,1.761c-0.832,1.228-1.913,2.153-3.243,2.777c-0.355,0.166-0.713,0.295-1.075,0.388
		c-0.364,0.095-0.745,0.153-1.139,0.172c-0.105,0-0.249-0.004-0.436-0.016c-0.188-0.01-0.38,0-0.578,0.032
		c-0.198,0.032-0.368,0.083-0.513,0.157c-0.147,0.071-0.22,0.192-0.22,0.358c0,0.145,0.067,0.254,0.204,0.327
		c0.135,0.073,0.291,0.131,0.468,0.172c0.176,0.042,0.353,0.067,0.529,0.077c0.178,0.01,0.307,0.026,0.39,0.048
		c0.749,0.125,1.351,0.436,1.808,0.935c0.499,0.519,0.812,1.123,0.937,1.808c0.125,0.685,0.135,1.363,0.032,2.026
		c-0.105,0.646-0.293,1.274-0.562,1.888c-0.269,0.614-0.608,1.185-1.014,1.715c-0.404,0.531-0.867,1.002-1.387,1.418
		c-0.521,0.416-1.091,0.739-1.715,0.967c-0.582,0.23-1.232,0.343-1.949,0.343c-0.717,0-1.337-0.206-1.856-0.622
		c-0.105-0.083-0.218-0.214-0.343-0.39c-0.125-0.176-0.256-0.349-0.39-0.515c-0.135-0.166-0.281-0.311-0.436-0.436
		c-0.156-0.125-0.317-0.188-0.483-0.188c-0.291,0.022-0.432,0.166-0.422,0.438c0.01,0.269,0.067,0.487,0.172,0.654
		c0.145,0.291,0.327,0.531,0.545,0.717c0.218,0.188,0.454,0.364,0.701,0.531c0.687,0.436,1.42,0.749,2.199,0.935
		c0.78,0.188,1.565,0.271,2.355,0.25c0.644-0.02,1.295-0.113,1.949-0.279c0.656-0.166,1.28-0.396,1.872-0.687
		c0.592-0.291,1.133-0.654,1.62-1.091c0.489-0.436,0.899-0.945,1.232-1.527c0.333-0.582,0.578-1.202,0.733-1.856
		c0.156-0.656,0.22-1.309,0.188-1.965c-0.032-0.656-0.156-1.299-0.374-1.933c-0.218-0.634-0.535-1.21-0.951-1.731
		c-0.355-0.333-0.723-0.666-1.107-0.998c-0.386-0.333-0.826-0.571-1.325-0.717c0.705,0,1.408-0.129,2.104-0.39
		C27.798,13.506,28.448,13.221,29.05,12.908z"/>
	<path style="fill:#262626;" d="M47.42,17.868c0.103-0.521,0.212-1.065,0.327-1.638c0.115-0.57,0.256-1.095,0.422-1.575l0.311-0.468
		c0.105-0.166,0.198-0.327,0.281-0.483c0.083-0.156,0.135-0.317,0.157-0.483l-0.063-0.063c-0.103,0-0.214-0.004-0.327-0.016
		c-0.115-0.01-0.224-0.014-0.327-0.014v0.03c-0.271-0.02-0.537-0.03-0.796-0.03c-0.26,0-0.503,0.026-0.733,0.077
		c-0.228,0.052-0.448,0.141-0.656,0.266S45.621,13.772,45.455,14c-0.353,0.416-0.701,0.848-1.044,1.295
		c-0.345,0.448-0.691,0.909-1.046,1.387c-0.454,0.606-0.943,1.23-1.438,1.856c-0.056,0-0.121,0.034-0.214,0.141
		c-0.249,0.271-0.582,0.665-0.998,1.184c-0.416,0.521-0.883,1.076-1.402,1.67c-0.521,0.592-1.077,1.175-1.67,1.745
		c-0.226,0.218-0.45,0.404-0.674,0.59c-0.095,0.079-0.19,0.162-0.287,0.24c-0.267,0.206-0.535,0.398-0.8,0.559
		c-0.249,0.166-0.562,0.333-0.937,0.499c-0.374,0.166-0.743,0.269-1.107,0.311c-0.362,0.042-0.679-0.016-0.951-0.17
		c-0.269-0.156-0.436-0.473-0.499-0.953c-0.042-0.353-0.026-0.711,0.048-1.076c0.073-0.362,0.182-0.711,0.327-1.044
		c0.105-0.23,0.204-0.509,0.297-0.842c0.093-0.333,0.224-0.583,0.39-0.749c0.145-0.166,0.362-0.259,0.654-0.281
		c0.291-0.02,0.541-0.052,0.749-0.093c0.374-0.103,0.733-0.214,1.076-0.327c0.345-0.115,0.691-0.246,1.046-0.39
		c0.644-0.291,1.283-0.634,1.917-1.03c0.634-0.394,1.2-0.862,1.7-1.402c0.208-0.208,0.41-0.448,0.608-0.717
		c0.198-0.271,0.359-0.563,0.483-0.874c0.125-0.313,0.198-0.63,0.218-0.951c0.022-0.323-0.061-0.63-0.249-0.921
		c-0.228-0.394-0.571-0.612-1.028-0.654c-0.458-0.042-0.883-0.022-1.279,0.061c-0.624,0.105-1.232,0.271-1.824,0.499
		c-0.592,0.23-1.159,0.519-1.699,0.873c-1.123,0.666-2.12,1.456-2.993,2.369c-0.874,0.915-1.612,1.955-2.214,3.12
		c-0.23,0.416-0.442,0.858-0.64,1.325c-0.196,0.468-0.353,0.951-0.467,1.45c-0.115,0.499-0.167,0.998-0.157,1.497
		c0.012,0.499,0.121,0.967,0.329,1.402c0.25,0.499,0.586,0.864,1.012,1.091c0.426,0.23,0.883,0.355,1.373,0.374
		c0.489,0.022,0.986-0.036,1.497-0.17c0.2-0.053,0.353-0.148,0.537-0.216c0.01,0.018,0.01,0.044,0.024,0.059
		c0.115,0.135,0.285,0.17,0.515,0.109c0.208-0.042,0.4-0.119,0.576-0.234c0.176-0.115,0.349-0.234,0.515-0.358
		c1.373-1.165,2.64-2.426,3.805-3.789c1.163-1.361,2.308-2.739,3.431-4.132c0.331-0.416,0.654-0.816,0.967-1.2
		c0.311-0.384,0.644-0.774,0.996-1.171c-0.291,1.434-0.65,2.89-1.076,4.365c-0.426,1.478-1.002,2.87-1.731,4.179
		c-0.083,0.105-0.196,0.24-0.343,0.406c-0.145,0.166-0.307,0.333-0.483,0.499c-0.176,0.166-0.359,0.311-0.545,0.436
		c-0.188,0.125-0.364,0.188-0.531,0.188c-0.23,0.042-0.41-0.063-0.545-0.313c-0.137-0.25-0.204-0.487-0.204-0.717
		c0-0.125,0.01-0.218,0.032-0.281c0.042-0.164,0.061-0.327,0.061-0.483c0-0.155-0.061-0.275-0.186-0.359
		c-0.186-0.103-0.41-0.103-0.672,0c-0.259,0.105-0.451,0.208-0.576,0.313c-0.186,0.167-0.321,0.343-0.404,0.529
		c-0.083,0.188-0.125,0.374-0.125,0.562c0,0.291,0.097,0.573,0.295,0.842c0.198,0.269,0.452,0.477,0.765,0.624
		c0.458,0.186,0.957,0.279,1.497,0.279c0.414,0,0.82-0.046,1.216-0.139c0.394-0.095,0.769-0.224,1.121-0.39
		c0.874-0.394,1.587-0.909,2.137-1.545c0.551-0.634,1.002-1.335,1.357-2.104c0.353-0.769,0.634-1.581,0.842-2.432
		c0.208-0.854,0.406-1.715,0.592-2.589V17.868z M35.335,17.539c0.489-0.695,1.034-1.357,1.638-1.979
		c0.042-0.042,0.135-0.141,0.279-0.297c0.147-0.157,0.313-0.317,0.499-0.483c0.188-0.166,0.39-0.327,0.608-0.483
		c0.22-0.156,0.422-0.269,0.608-0.343c0.188-0.073,0.345-0.089,0.469-0.048c0.125,0.042,0.196,0.176,0.218,0.406
		c0.02,0.269-0.054,0.576-0.218,0.919c-0.168,0.343-0.313,0.63-0.438,0.858c-0.186,0.291-0.4,0.566-0.64,0.826
		c-0.238,0.261-0.493,0.505-0.763,0.733c-0.541,0.479-1.107,0.927-1.699,1.341c-0.594,0.418-1.254,0.646-1.981,0.687
		C34.374,18.95,34.846,18.236,35.335,17.539z"/>
	<path style="fill:#262626;" d="M61.326,3.179c-0.353-0.042-0.749-0.061-1.185-0.061c-0.394,0-0.769,0.02-1.123,0.061
		c-0.353,0.042-0.602,0.105-0.749,0.188c-0.083,0.083-0.155,0.196-0.218,0.343c-0.061,0.145-0.115,0.279-0.157,0.404
		c0,0.044-0.01,0.079-0.03,0.111c-0.022,0.03-0.032,0.067-0.032,0.109c-0.125,0.477-0.333,0.992-0.624,1.543
		c-0.291,0.551-0.572,1.076-0.842,1.575V7.42l-0.343,0.624l-1.341,1.933h-2.65v1.091h2.088l-1.62,2.621
		c-1.123,1.83-2.054,3.363-2.791,4.599c-0.739,1.238-1.327,2.278-1.763,3.12c-0.436,0.842-0.733,1.549-0.889,2.119
		c-0.154,0.572-0.222,1.119-0.202,1.638c0.083,0.727,0.4,1.248,0.951,1.559c0.551,0.311,1.171,0.416,1.856,0.311
		c0.707-0.228,1.414-0.58,2.121-1.06c0.705-0.477,1.392-1.018,2.058-1.622c0.663-0.602,1.287-1.246,1.87-1.933
		c0.582-0.685,1.103-1.341,1.561-1.965c0.456-0.622,0.836-1.188,1.137-1.699c0.301-0.509,0.493-0.899,0.576-1.168
		c-0.042-0.103-0.103-0.157-0.186-0.157c-0.022,0.022-0.042,0.054-0.061,0.093c-0.022,0.044-0.053,0.085-0.095,0.125
		c-0.167,0.23-0.41,0.569-0.733,1.014c-0.323,0.448-0.695,0.941-1.121,1.482c-0.428,0.541-0.874,1.097-1.341,1.668
		c-0.47,0.572-0.931,1.107-1.389,1.606c-0.458,0.499-0.883,0.925-1.28,1.279c-0.394,0.353-0.737,0.582-1.028,0.685
		c-0.479,0.167-0.889,0.15-1.232-0.047c-0.343-0.196-0.442-0.564-0.297-1.107c0.271-0.913,0.681-1.921,1.232-3.025
		c0.551-1.101,1.165-2.24,1.84-3.415c0.675-1.175,1.383-2.339,2.121-3.492c0.737-1.155,1.438-2.23,2.106-3.229h2.65V9.977h-2.058
		c0.644-0.935,1.189-1.761,1.636-2.478c0.448-0.717,0.812-1.337,1.091-1.856c0.281-0.519,0.493-0.967,0.64-1.341
		c0.145-0.374,0.249-0.685,0.311-0.935C61.835,3.284,61.681,3.22,61.326,3.179z"/>
	<path style="fill:#262626;" d="M80.1,15.465c-0.188-1.101-0.483-2.199-0.889-3.29c-0.406-1.091-0.816-2.135-1.232-3.133
		c-0.25-0.665-0.394-1.367-0.436-2.106c-0.042-0.737,0.032-1.45,0.218-2.135c0.186-0.687,0.487-1.315,0.905-1.888
		c0.414-0.57,0.967-1.024,1.652-1.357c0.81-0.206,1.497-0.135,2.058,0.22c0.562,0.353,0.982,0.852,1.264,1.495
		c0.279,0.646,0.416,1.353,0.404,2.121c-0.01,0.769-0.182,1.456-0.513,2.058c-0.166,0.271-0.349,0.566-0.547,0.889
		c-0.198,0.323-0.432,0.586-0.701,0.794c-0.105,0.063-0.198,0.146-0.281,0.249c-0.083,0.105-0.125,0.198-0.125,0.281
		S81.944,9.8,82.08,9.822c0.135,0.02,0.378-0.022,0.733-0.125c0.705-0.208,1.313-0.598,1.824-1.171
		c0.509-0.571,0.887-1.22,1.137-1.949c0.25-0.727,0.355-1.476,0.313-2.244c-0.042-0.771-0.261-1.456-0.656-2.058
		c-0.416-0.624-0.931-1.077-1.543-1.357c-0.614-0.281-1.27-0.422-1.965-0.422c-0.697,0-1.389,0.121-2.074,0.359
		c-0.687,0.24-1.289,0.557-1.808,0.951c-1.04,0.665-1.83,1.478-2.371,2.432c-0.541,0.957-0.877,1.977-1.014,3.056
		c-0.135,1.081-0.087,2.183,0.141,3.306c0.23,1.123,0.592,2.183,1.091,3.181c0.333,0.624,0.614,1.289,0.842,1.997
		c0.23,0.707,0.374,1.418,0.438,2.135c0.061,0.717,0.036,1.436-0.079,2.153c-0.113,0.717-0.347,1.398-0.701,2.042
		c-0.333,0.644-0.733,1.264-1.2,1.856c-0.468,0.592-1.034,1.066-1.699,1.418c-0.604,0.311-1.283,0.525-2.042,0.64
		c-0.761,0.115-1.472,0.099-2.137-0.048c-0.749-0.145-1.393-0.42-1.933-0.826c-0.541-0.406-0.992-0.889-1.357-1.45
		c-0.362-0.562-0.644-1.18-0.842-1.856c-0.198-0.675-0.317-1.357-0.359-2.042c-0.042-0.707,0.014-1.408,0.17-2.106
		c0.156-0.695,0.402-1.345,0.735-1.949c0.291-0.582,0.66-1.159,1.107-1.731c0.446-0.57,0.971-1.012,1.575-1.325
		c0.624-0.291,1.262-0.39,1.917-0.295c0.656,0.093,1.22,0.4,1.699,0.919c0.374,0.416,0.656,0.947,0.842,1.591
		c0.188,0.644,0.208,1.258,0.063,1.84c-0.105,0.333-0.162,0.592-0.172,0.778c-0.01,0.188-0.099,0.428-0.265,0.719
		c-0.042,0.061-0.089,0.16-0.141,0.295c-0.052,0.137-0.083,0.261-0.093,0.374c-0.01,0.115,0,0.198,0.032,0.249
		c0.032,0.052,0.119,0.026,0.266-0.077c0.353-0.271,0.663-0.557,0.935-0.858c0.269-0.301,0.499-0.733,0.685-1.295
		c0.125-0.331,0.23-0.695,0.313-1.091c0.083-0.394,0.129-0.794,0.141-1.2c0.01-0.406-0.028-0.8-0.109-1.185
		c-0.083-0.384-0.23-0.743-0.438-1.076c-0.394-0.624-0.915-1.018-1.559-1.187c-0.646-0.164-1.315-0.192-2.012-0.077
		c-0.695,0.115-1.377,0.327-2.042,0.64c-0.665,0.311-1.216,0.644-1.652,0.998c-0.541,0.436-1.062,0.925-1.563,1.466
		c-0.499,0.541-0.945,1.121-1.335,1.745c-0.39,0.624-0.705,1.279-0.949,1.965c-0.242,0.687-0.374,1.383-0.394,2.09
		c-0.042,0.729-0.006,1.466,0.111,2.214c0.115,0.749,0.363,1.444,0.743,2.09c0.358,0.582,0.82,1.081,1.385,1.495
		c0.566,0.418,1.161,0.739,1.785,0.969c0.747,0.269,1.537,0.414,2.369,0.436c0.832,0.02,1.664-0.058,2.496-0.234
		c0.83-0.176,1.632-0.426,2.401-0.749c0.769-0.323,1.476-0.691,2.121-1.107c0.644-0.416,1.242-0.877,1.793-1.389
		c0.551-0.509,1.002-1.105,1.357-1.793c0.602-1.018,0.961-2.078,1.076-3.181C80.322,17.67,80.286,16.569,80.1,15.465z"/>
	<path style="fill:#262626;" d="M122.464,18.819c-0.135,0.156-0.256,0.317-0.359,0.483c-0.355,0.499-0.743,1.06-1.168,1.684
		c-0.428,0.624-0.87,1.206-1.325,1.747c-0.458,0.541-0.901,1.002-1.327,1.387c-0.426,0.386-0.816,0.608-1.169,0.671
		c-0.25,0.042-0.416-0.073-0.499-0.343c-0.083-0.271-0.125-0.509-0.125-0.717c-0.02-0.313,0.01-0.614,0.093-0.905
		c0.083-0.291,0.198-0.576,0.345-0.858c0.145-0.281,0.301-0.557,0.468-0.826c0.166-0.269,0.331-0.531,0.499-0.78
		c0.58-1.018,1.188-2.006,1.824-2.963c0.634-0.955,1.313-1.89,2.042-2.805c0.083-0.125,0.17-0.266,0.266-0.422
		c0.093-0.157,0.154-0.301,0.186-0.436c0.032-0.137,0.01-0.249-0.061-0.345c-0.073-0.093-0.234-0.129-0.483-0.109
		c-0.333,0.042-0.672,0.131-1.014,0.266c-0.343,0.135-0.691,0.234-1.044,0.297c-0.271,0.042-0.543,0.046-0.812,0.016
		c-0.269-0.032-0.541-0.111-0.81-0.236c-0.083-0.04-0.176-0.103-0.281-0.186c-0.103-0.083-0.214-0.16-0.327-0.234
		c-0.115-0.073-0.23-0.125-0.343-0.156c-0.115-0.032-0.224-0.026-0.329,0.016c-0.644,1.185-1.293,2.397-1.949,3.633
		c-0.576,1.089-1.214,2.133-1.88,3.159c-0.002,0.002-0.004,0.004-0.006,0.006c-0.416,0.521-0.884,1.076-1.402,1.67
		c-0.521,0.592-1.078,1.175-1.67,1.745c-0.592,0.573-1.18,1.036-1.761,1.389c-0.25,0.166-0.563,0.333-0.937,0.499
		c-0.374,0.166-0.743,0.269-1.107,0.311c-0.362,0.042-0.679-0.016-0.951-0.17c-0.269-0.156-0.436-0.473-0.499-0.953
		c-0.042-0.353-0.026-0.711,0.047-1.076c0.073-0.362,0.182-0.711,0.327-1.044c0.105-0.23,0.204-0.509,0.297-0.842
		c0.093-0.333,0.224-0.583,0.39-0.749c0.145-0.166,0.362-0.259,0.654-0.281c0.291-0.02,0.541-0.052,0.749-0.093
		c0.374-0.103,0.733-0.214,1.076-0.327c0.345-0.115,0.691-0.246,1.046-0.39c0.644-0.291,1.284-0.634,1.918-1.03
		c0.634-0.394,1.2-0.862,1.699-1.402c0.208-0.208,0.41-0.448,0.608-0.717c0.198-0.271,0.359-0.563,0.483-0.874
		c0.125-0.313,0.198-0.63,0.218-0.951c0.022-0.323-0.061-0.63-0.249-0.921c-0.228-0.394-0.57-0.612-1.028-0.654
		c-0.458-0.042-0.884-0.022-1.28,0.061c-0.624,0.105-1.232,0.271-1.824,0.499c-0.592,0.23-1.159,0.519-1.699,0.873
		c-1.123,0.666-2.119,1.456-2.993,2.369c-0.873,0.915-1.612,1.955-2.215,3.12c-0.23,0.416-0.442,0.858-0.64,1.325
		c-0.196,0.468-0.352,0.951-0.468,1.45c-0.018,0.073-0.01,0.146-0.024,0.222c-0.249,0.281-0.485,0.574-0.757,0.838
		c-0.468,0.458-0.982,0.854-1.543,1.187c-0.333,0.145-0.594,0.17-0.78,0.077c-0.186-0.093-0.281-0.234-0.281-0.422
		c-0.042-0.27,0.01-0.561,0.156-0.872c0.145-0.313,0.269-0.551,0.374-0.719c0.81-1.601,1.664-3.175,2.557-4.724
		c0.893-1.549,1.793-3.092,2.698-4.631c0.903-1.537,1.803-3.066,2.698-4.583c0.893-1.517,1.757-3.046,2.589-4.585
		c0.02-0.103,0.035-0.289,0.045-0.561c0.01-0.269-0.067-0.436-0.234-0.499c-0.147,0-0.38,0.022-0.701,0.063
		c-0.323,0.042-0.665,0.083-1.03,0.125c-0.364,0.042-0.697,0.083-0.998,0.125c-0.301,0.042-0.493,0.071-0.576,0.093
		c-0.02,0.103-0.032,0.24-0.032,0.404c0,0.168,0,0.303,0,0.406c-0.02,0.147-0.057,0.287-0.109,0.422
		c-0.051,0.135-0.119,0.275-0.202,0.42c-0.854,1.478-1.706,2.937-2.557,4.381c-0.854,1.446-1.715,2.896-2.589,4.352
		c-0.727,1.246-1.472,2.474-2.23,3.678c-0.759,1.206-1.45,2.454-2.074,3.744c-0.186,0.374-0.372,0.867-0.561,1.482
		c-0.071,0.238-0.119,0.471-0.162,0.703c-0.448,0.426-0.929,0.806-1.458,1.121c-0.333,0.145-0.594,0.17-0.78,0.077
		s-0.281-0.234-0.281-0.422c-0.042-0.27,0.01-0.561,0.157-0.872c0.145-0.313,0.269-0.551,0.374-0.719
		c0.81-1.601,1.664-3.175,2.557-4.724c0.893-1.549,1.793-3.092,2.698-4.631c0.903-1.537,1.803-3.066,2.698-4.583
		c0.893-1.517,1.757-3.046,2.589-4.585c0.02-0.103,0.036-0.289,0.046-0.561c0.01-0.269-0.067-0.436-0.234-0.499
		c-0.147,0-0.38,0.022-0.701,0.063c-0.323,0.042-0.666,0.083-1.03,0.125c-0.364,0.042-0.697,0.083-0.998,0.125
		c-0.301,0.042-0.493,0.071-0.576,0.093c-0.02,0.103-0.032,0.24-0.032,0.404c0,0.168,0,0.303,0,0.406
		c-0.02,0.147-0.057,0.287-0.109,0.422c-0.052,0.135-0.119,0.275-0.202,0.42c-0.854,1.478-1.705,2.937-2.557,4.381
		c-0.854,1.446-1.715,2.896-2.589,4.352c-0.727,1.246-1.472,2.474-2.23,3.678c-0.226,0.359-0.402,0.745-0.614,1.109
		c-0.204,0.236-0.432,0.507-0.711,0.856c-0.416,0.521-0.884,1.076-1.402,1.67c-0.521,0.592-1.078,1.175-1.67,1.745
		c-0.592,0.573-1.18,1.036-1.761,1.389c-0.25,0.166-0.563,0.333-0.937,0.499c-0.374,0.166-0.743,0.269-1.107,0.311
		c-0.362,0.042-0.679-0.016-0.951-0.17c-0.269-0.156-0.436-0.473-0.499-0.953c-0.042-0.353-0.026-0.711,0.048-1.076
		c0.073-0.362,0.182-0.711,0.327-1.044c0.105-0.23,0.204-0.509,0.297-0.842c0.093-0.333,0.224-0.583,0.39-0.749
		c0.144-0.166,0.362-0.259,0.654-0.281c0.291-0.02,0.541-0.052,0.749-0.093c0.374-0.103,0.733-0.214,1.075-0.327
		c0.345-0.115,0.691-0.246,1.046-0.39c0.644-0.291,1.283-0.634,1.917-1.03c0.634-0.394,1.2-0.862,1.699-1.402
		c0.208-0.208,0.41-0.448,0.608-0.717c0.198-0.271,0.358-0.563,0.483-0.874c0.125-0.313,0.198-0.63,0.218-0.951
		c0.022-0.323-0.061-0.63-0.25-0.921c-0.228-0.394-0.57-0.612-1.028-0.654c-0.458-0.042-0.884-0.022-1.28,0.061
		c-0.624,0.105-1.232,0.271-1.824,0.499c-0.592,0.23-1.159,0.519-1.699,0.873c-1.123,0.666-2.119,1.456-2.993,2.369
		c-0.873,0.915-1.612,1.955-2.214,3.12c-0.23,0.416-0.442,0.858-0.64,1.325c-0.196,0.468-0.353,0.951-0.468,1.45
		c-0.115,0.499-0.166,0.998-0.156,1.497c0.012,0.499,0.121,0.967,0.329,1.402c0.25,0.499,0.586,0.864,1.012,1.091
		c0.426,0.23,0.884,0.355,1.373,0.374c0.489,0.022,0.986-0.036,1.498-0.17c0.509-0.137,0.961-0.317,1.357-0.547
		c0.269-0.145,0.618-0.384,1.044-0.717c0.426-0.333,0.889-0.717,1.388-1.155c0.499-0.436,1.002-0.913,1.511-1.434
		c0.337-0.343,0.634-0.675,0.939-1.008c-0.131,0.311-0.261,0.66-0.392,1.088c-0.186,0.612-0.281,1.21-0.281,1.793
		c0,0.582,0.137,1.075,0.406,1.481c0.269,0.404,0.78,0.586,1.529,0.545c0.935-0.186,1.777-0.561,2.525-1.123
		c0.349-0.261,0.681-0.549,1.002-0.85c0.01,0.557,0.139,1.036,0.4,1.428c0.269,0.404,0.78,0.586,1.529,0.545
		c0.935-0.186,1.777-0.561,2.526-1.123c0.663-0.497,1.27-1.081,1.836-1.725c0,0.036-0.012,0.069-0.012,0.105
		c0.012,0.499,0.121,0.967,0.329,1.402c0.249,0.499,0.586,0.864,1.012,1.091c0.426,0.23,0.884,0.355,1.373,0.374
		c0.489,0.022,0.986-0.036,1.497-0.17c0.418-0.113,0.773-0.275,1.115-0.45c-0.014,0.089-0.008,0.176,0.022,0.261
		c0.063,0.176,0.23,0.244,0.499,0.202c0.998-0.58,1.892-1.293,2.682-2.135c0.79-0.842,1.523-1.747,2.198-2.714
		c0.341-0.487,0.638-1,0.959-1.499c0.115-0.153,0.266-0.319,0.367-0.465c0.261-0.372,0.432-0.687,0.547-0.967
		c0.01-0.016,0.02-0.03,0.03-0.045c0.594-1.018,1.19-1.997,1.795-2.932c0.208-0.166,0.384-0.218,0.529-0.156
		c0.147,0.061,0.333,0.125,0.563,0.186c0.249,0.105,0.509,0.131,0.778,0.079c0.271-0.052,0.541-0.058,0.812-0.016
		c-0.355,0.479-0.729,0.931-1.123,1.357c-0.396,0.426-0.796,0.852-1.2,1.278c-0.406,0.428-0.796,0.864-1.171,1.311
		c-0.374,0.446-0.695,0.929-0.967,1.45c-0.186,0.353-0.384,0.774-0.592,1.262c-0.208,0.489-0.343,0.982-0.406,1.481
		c-0.061,0.499-0.02,0.963,0.125,1.389c0.146,0.426,0.469,0.765,0.968,1.014c0.372,0.164,0.763,0.212,1.169,0.139
		c0.406-0.073,0.8-0.218,1.185-0.436c0.384-0.218,0.749-0.473,1.091-0.764c0.343-0.291,0.64-0.561,0.889-0.81
		c0.436-0.499,0.816-0.947,1.139-1.341c0.321-0.394,0.638-0.79,0.951-1.185c0.311-0.396,0.634-0.816,0.967-1.264
		c0.333-0.448,0.707-0.961,1.123-1.543c0.208-0.333,0.279-0.573,0.218-0.719C122.771,18.678,122.598,18.662,122.464,18.819z
		 M107.495,17.539c0.489-0.695,1.034-1.357,1.638-1.979c0.042-0.042,0.135-0.141,0.279-0.297c0.147-0.157,0.313-0.317,0.499-0.483
		c0.188-0.166,0.39-0.327,0.608-0.483c0.22-0.156,0.422-0.269,0.608-0.343c0.188-0.073,0.345-0.089,0.47-0.048
		c0.125,0.042,0.196,0.176,0.218,0.406c0.02,0.269-0.054,0.576-0.218,0.919c-0.168,0.343-0.313,0.63-0.438,0.858
		c-0.186,0.291-0.4,0.566-0.64,0.826c-0.238,0.261-0.493,0.505-0.762,0.733c-0.541,0.479-1.107,0.927-1.699,1.341
		c-0.594,0.418-1.254,0.646-1.981,0.687C106.535,18.95,107.006,18.236,107.495,17.539z M85.976,17.539
		c0.489-0.695,1.034-1.357,1.638-1.979c0.042-0.042,0.135-0.141,0.279-0.297c0.146-0.157,0.313-0.317,0.499-0.483
		c0.188-0.166,0.39-0.327,0.608-0.483c0.22-0.156,0.422-0.269,0.608-0.343c0.188-0.073,0.345-0.089,0.469-0.048
		s0.196,0.176,0.218,0.406c0.02,0.269-0.053,0.576-0.218,0.919c-0.168,0.343-0.313,0.63-0.438,0.858
		c-0.186,0.291-0.4,0.566-0.64,0.826c-0.238,0.261-0.493,0.505-0.763,0.733c-0.541,0.479-1.107,0.927-1.699,1.341
		c-0.594,0.418-1.254,0.646-1.981,0.687C85.016,18.95,85.487,18.236,85.976,17.539z"/>
</g>
</svg>
