<svg width="24" height="24" viewBox="0 0 24 24" fill="none" xmlns="http://www.w3.org/2000/svg">
<path fill-rule="evenodd" clip-rule="evenodd" d="M11.145 4.60697C9.05286 2.46432 5.66129 2.46432 3.56912 4.60697C1.47696 6.74962 1.47696 10.2236 3.56912 12.3662L12 21L20.4309 12.3668C22.523 10.2242 22.523 6.75019 20.4309 4.60754C18.3387 2.46489 14.9471 2.46489 12.855 4.60754L12 5.48315L11.145 4.60697ZM19.5724 11.5284C19.5724 11.5284 19.5723 11.5284 19.5724 11.5284C21.2092 9.85196 21.2092 7.12231 19.5723 5.44589C17.951 3.78544 15.3349 3.78544 13.7136 5.44589L11.9997 7.20108L10.2864 5.44532C10.2864 5.44523 10.2865 5.44542 10.2864 5.44532C8.66509 3.78515 6.04894 3.78497 4.42771 5.44532C2.79076 7.12176 2.79076 9.85145 4.42771 11.5279L12 19.2824L19.5724 11.5284Z" fill="#111111"/>
</svg>
