<svg width="24" height="24" viewBox="0 0 24 24" fill="none" xmlns="http://www.w3.org/2000/svg">
<path fill-rule="evenodd" clip-rule="evenodd" d="M15.0619 16.0339C13.6776 17.2387 11.8753 17.9671 9.90459 17.9671C5.53901 17.9671 2 14.3927 2 9.98353C2 5.57435 5.53901 2 9.90459 2C14.2702 2 17.8092 5.57435 17.8092 9.98353C17.8092 11.9712 17.09 13.7892 15.9 15.1866L20.8184 19.9699C21.0542 20.1993 21.0613 20.5784 20.8342 20.8166C20.6071 21.0548 20.2318 21.0619 19.9959 20.8325L15.0619 16.0339ZM16.6235 9.98353C16.6235 13.7313 13.6153 16.7695 9.90459 16.7695C6.19384 16.7695 3.18569 13.7313 3.18569 9.98353C3.18569 6.23573 6.19384 3.19753 9.90459 3.19753C13.6153 3.19753 16.6235 6.23573 16.6235 9.98353Z" fill="#111111"/>
</svg>
