<svg width="24" height="24" viewBox="0 0 24 24" fill="none" xmlns="http://www.w3.org/2000/svg">
<path fill-rule="evenodd" clip-rule="evenodd" d="M7.16886 5.09556C7.41287 3.32193 8.93602 2 10.7356 2H13.2626C15.0622 2 16.5853 3.32193 16.8294 5.09557L17.1014 7.07331H19.8312L20.9959 19.9159C21.0487 20.4982 20.5877 21 20 21H4.00008C3.41232 21 2.95131 20.4982 3.00413 19.9158L4.16894 7.07331H6.89676L7.16886 5.09556ZM8.10795 7.07331H15.8903L15.6404 5.25743C15.4778 4.07501 14.4623 3.19372 13.2626 3.19372H10.7356C9.53588 3.19372 8.52045 4.075 8.35778 5.25742L8.10795 7.07331ZM4.21894 19.8063L5.26555 8.26703H18.7346L19.7811 19.8063H4.21894Z" fill="#111111"/>
</svg>
